<?xml version="1.0" encoding="UTF-8" standalone="no"?>
<!-- Created with Inkscape (http://www.inkscape.org/) -->

<svg
   width="34.929211mm"
   height="41.956638mm"
   viewBox="0 0 34.929211 41.956638"
   version="1.1"
   id="svg1"
   xml:space="preserve"
   inkscape:export-filename="logo.svg"
   inkscape:export-xdpi="154.97906"
   inkscape:export-ydpi="154.97906"
   xmlns:inkscape="http://www.inkscape.org/namespaces/inkscape"
   xmlns:sodipodi="http://sodipodi.sourceforge.net/DTD/sodipodi-0.dtd"
   xmlns="http://www.w3.org/2000/svg"
   xmlns:svg="http://www.w3.org/2000/svg"><sodipodi:namedview
     id="namedview1"
     pagecolor="#ffffff"
     bordercolor="#000000"
     borderopacity="0.25"
     inkscape:showpageshadow="2"
     inkscape:pageopacity="0.0"
     inkscape:pagecheckerboard="0"
     inkscape:deskcolor="#d1d1d1"
     inkscape:document-units="mm" /><defs
     id="defs1" /><g
     inkscape:label="Camada 1"
     inkscape:groupmode="layer"
     id="layer1"
     style="display:inline;opacity:1;mix-blend-mode:normal"
     transform="translate(-11.048539,-17.232942)"><g
       id="layer2"
       inkscape:label="vetor"
       inkscape:groupmode="layer"
       transform="translate(-68.529446,-8.9199516)"><path
         style="fill:none;fill-opacity:1;stroke:#b50008;stroke-width:0.612239;stroke-opacity:0.978437"
         d="m 92.683048,33.638036 c 3.517242,-1.574423 6.838411,-0.874246 10.514532,-0.44422 l 5.36456,-5.996953 c 4.05743,5.261426 3.23505,8.561694 2.14582,14.548162 0.93796,1.979144 2.23482,3.857553 2.89685,5.8859 0.61544,2.504493 0.81526,3.839555 0.32196,6.330118 -0.51245,2.163639 -1.52668,3.980992 -2.89687,5.552738 l -5.68644,6.108006 c -0.80297,-2.361125 -0.4081,-4.490797 -0.48279,-6.663279 l -2.62864,4.664299 -0.42917,-0.88844 c -0.50363,1.577212 -1.67871,2.9017 -3.755188,3.886914 l -1.502074,-2.332149 c -0.819619,1.116649 -1.495753,2.530334 -2.574986,3.109532 L 92.8977,66.177062 91.610207,67.50972 90.430011,63.178589 89.142516,64.28913 C 88.300635,62.710456 88.472086,61.569309 87.815326,60.473237 86.019077,57.475475 85.331123,55.229596 86.13837,51.628899 83.31586,48.455445 83.712095,45.345015 85.172746,41.30081 l -0.643748,-0.333163 0.429168,-0.666331 -1.072911,-0.999492 c 1.21709,-0.88475 0.332898,-2.177309 -0.697385,-3.498221 -2.024498,-3.040476 -4.095965,-4.885721 -3.006095,-9.032314 3.990013,4.32531 8.27186,5.294528 12.501273,6.866747 z"
         id="path1"
         sodipodi:nodetypes="ccccccccccccccccccscccccccc" /><path
         style="display:inline;fill:none;fill-opacity:1;stroke:#b50008;stroke-width:0.4;stroke-dasharray:none;stroke-opacity:0.978437"
         d="m 95.043456,49.907548 c 0.57267,-1.166193 0.07354,-3.049004 1.636876,-3.731714 1.380615,-0.788901 2.289653,-0.06517 3.416648,-0.06652 -0.953419,1.110513 -2.144606,2.532513 -4.582405,1.87696"
         id="path4"
         sodipodi:nodetypes="cccc" /><path
         style="display:inline;fill:none;fill-opacity:1;stroke:#b50008;stroke-width:0.4;stroke-dasharray:none;stroke-opacity:0.978437"
         d="m 100.11461,46.113249 c 2.98304,0.348313 6.11265,-1.418108 8.50554,7.445335"
         id="path5"
         sodipodi:nodetypes="cc" /><path
         style="fill:none;fill-opacity:1;stroke:#b50008;stroke-width:0.4;stroke-dasharray:none;stroke-opacity:0.978437"
         d="m 85.901681,45.757624 c 0.538807,-0.101615 -0.365271,-0.233312 1.888794,0.122475 1.073768,0.730753 0.512054,1.183863 0.469851,1.811616 -1.377265,-0.224671 -2.239294,-0.828877 -2.358645,-1.934088 z"
         id="path7"
         sodipodi:nodetypes="ccccc" /><path
         style="display:inline;fill:none;fill-opacity:1;stroke:#b50008;stroke-width:0.3;stroke-dasharray:none;stroke-opacity:0.978437"
         d="m 90.571789,58.352763 c -1.581368,-1.022078 -2.24924,-1.855464 -2.971886,-2.877542 2.256602,-1.068243 2.724575,-0.7591 4.953147,-0.09435 -0.317834,1.011779 -0.9153,2.086865 -1.981261,2.97189 z"
         id="path8"
         sodipodi:nodetypes="ccccc" /><path
         style="display:inline;fill:none;fill-opacity:1;stroke:#b50008;stroke-width:0.3;stroke-dasharray:none;stroke-opacity:0.978437"
         d="m 93.873888,53.2581 -1.32084,2.217121"
         id="path9" /><path
         style="display:inline;fill:none;fill-opacity:1;stroke:#b50008;stroke-width:0.264583;stroke-opacity:0.978437"
         d="m 90.524617,58.352763 0.471729,1.603875 h -1.132147"
         id="path10" /><path
         style="display:inline;fill:none;fill-opacity:1;stroke:#b50008;stroke-width:0.264583;stroke-opacity:0.978437"
         d="m 90.949173,59.862293 c 2.549736,0.946768 5.029324,0.420432 7.453304,-1.273667"
         id="path11"
         sodipodi:nodetypes="cc" /><path
         style="display:inline;opacity:1;fill:none;fill-opacity:1;stroke:#b50008;stroke-width:0.3;stroke-dasharray:none;stroke-opacity:0.978437"
         d="m 88.401842,47.833226 c 0.118927,0.698735 0.398925,1.236398 0.04717,2.405814 -1.220465,1.934502 -1.170639,3.487345 -0.89056,5.219503"
         id="path12"
         sodipodi:nodetypes="ccc" /><path
         style="display:inline;opacity:1;fill:none;fill-opacity:1;stroke:#b50008;stroke-width:0.15;stroke-dasharray:none;stroke-opacity:0.978437"
         d="m 89.011052,50.117708 c 1.120793,-0.445422 2.522087,-0.128099 3.552437,0.500345"
         id="path13"
         sodipodi:nodetypes="cc" /><path
         style="display:inline;opacity:1;fill:none;fill-opacity:1;stroke:#b50008;stroke-width:0.15;stroke-dasharray:none;stroke-opacity:0.978437"
         d="m 94.999118,49.764299 c -0.29853,0.281842 -0.12121,1.156162 0.242782,1.913511 1.336043,0.845232 2.644232,1.97407 3.39644,3.325684 -1.625266,-0.352796 -3.977565,-0.764021 -6.08529,0.990628"
         id="path14"
         sodipodi:nodetypes="cccc" /><path
         style="opacity:1;fill:#ffcc00;fill-opacity:1;stroke:#ffdd00;stroke-width:0.005;stroke-dasharray:none;stroke-opacity:1"
         d="m 97.255737,46.115674 c 0.375153,0.430062 0.480587,0.53294 0.524597,1.650168 -0.373124,-0.512756 -0.703808,-1.063212 -0.524597,-1.650168 z"
         id="path28"
         sodipodi:nodetypes="ccc" /></g></g></svg>
